# xmcd
#
# Track frame offsets:
#	150
#	13265
#	23303
#	40988
#	51714
#	66488
#	83527
#	94950
#	108178
#	131935
#
# Disc length: 2022 seconds
#
# Revision: 0
# Processed by: cddbd v1.5.2PL0 Copyright (c) Steve Scherf et al.
# Submitted via: EZCDAudioConverter 1.5.5.1
#
DISCID=8607e40a
DTITLE=Yarn - Leftovers Vol. 1
DYEAR=1900
DGENRE=
TTITLE0=Heartache For So Long
TTITLE1=Honeybear
TTITLE2=Losers Lullaby
TTITLE3=BigCity Bright Lights
TTITLE4=The Early Show
TTITLE5=Sorry for Bein' Me
TTITLE6=Hey Darlin'
TTITLE7=Let Me In
TTITLE8=Don't Worry Bout Me
TTITLE9=Bar Down the Road
EXTD=
EXTT0=
EXTT1=
EXTT2=
EXTT3=
EXTT4=
EXTT5=
EXTT6=
EXTT7=
EXTT8=
EXTT9=
PLAYORDER=
